HIERARCHY
ROOT Hips
{
	OFFSET 0.00000 0.00000 0.00000
	CHANNELS 6 Xposition Yposition Zposition Zrotation Yrotation Xrotation 
	JOINT LHipJoint
	{
		OFFSET 0 0 0
		CHANNELS 3 Zrotation Yrotation Xrotation
		JOINT LeftHip
		{
			OFFSET 1.53794 -1.55850 0.93568
			CHANNELS 3 Zrotation Yrotation Xrotation
			JOINT LeftKnee
			{
				OFFSET 2.28545 -6.27922 0.00000
				CHANNELS 3 Zrotation Yrotation Xrotation
				JOINT LeftAnkle
				{
					OFFSET 2.37329 -6.52057 0.00000
					CHANNELS 3 Zrotation Yrotation Xrotation
					JOINT LeftToe
					{
						OFFSET 0.14846 -0.40788 2.09160
						CHANNELS 3 Zrotation Yrotation Xrotation
						End Site
						{
							OFFSET 0.00000 -0.00000 1.07536
						}
					}
				}
			}
		}
	}
	JOINT RHipJoint
	{
		OFFSET 0 0 0
		CHANNELS 3 Zrotation Yrotation Xrotation
		JOINT RightHip
		{
			OFFSET -1.78290 -1.55850 0.93568
			CHANNELS 3 Zrotation Yrotation Xrotation
			JOINT RightKnee
			{
				OFFSET -2.24144 -6.15831 0.00000
				CHANNELS 3 Zrotation Yrotation Xrotation
				JOINT RightAnkle
				{
					OFFSET -2.35091 -6.45907 0.00000
					CHANNELS 3 Zrotation Yrotation Xrotation
					JOINT RightToe
					{
						OFFSET -0.14428 -0.39641 2.07944
						CHANNELS 3 Zrotation Yrotation Xrotation
						End Site
						{
							OFFSET -0.00000 -0.00000 1.06864
						}
					}
				}
			}
		}
	}
	JOINT lowerback
	{
		OFFSET 0 0 0
		CHANNELS 3 Zrotation Yrotation Xrotation
		JOINT Chest
		{
			OFFSET -0.08841 2.11430 -0.15818
			CHANNELS 3 Zrotation Yrotation Xrotation
			JOINT Chest2
			{
				OFFSET -0.00033 2.12605 -0.08097
				CHANNELS 3 Zrotation Yrotation Xrotation
				JOINT lowerneck
				{
					OFFSET 0 0 0
					CHANNELS 3 Zrotation Yrotation Xrotation
					JOINT Neck
					{
						OFFSET 0.04431 1.59447 0.43193
						CHANNELS 3 Zrotation Yrotation Xrotation
						JOINT Head
						{
							OFFSET 0.00455 1.62017 -0.58852
							CHANNELS 3 Zrotation Yrotation Xrotation
							End Site
							{
								OFFSET -0.00920 1.72955 -0.25850
							}
						}
					}
				}
				JOINT LeftCollar
				{
					OFFSET 0 0 0
					CHANNELS 3 Zrotation Yrotation Xrotation
					JOINT LeftShoulder
					{
						OFFSET 2.86490 1.49927 -0.33774
CHANNELS 3 Zrotation Xrotation Yrotation
						JOINT LeftElbow
						{
OFFSET 0 -4.874080 0.000000
CHANNELS 3 Zrotation Xrotation Yrotation
							JOINT LeftWrist
							{
OFFSET 0 -2.767290 0.000000
CHANNELS 3 Zrotation Xrotation Yrotation
								JOINT lhand
								{
									OFFSET 0 0 0
CHANNELS 3 Zrotation Xrotation Yrotation
									JOINT LFingers
									{
OFFSET 0 -0.989220 0.000000
CHANNELS 3 Zrotation Xrotation Yrotation
										End Site
										{
OFFSET 0 -0.797530 0.000000
										}
									}
								}
								JOINT LThumb
								{
OFFSET 0 0.000000 0.000000
CHANNELS 3 Zrotation Xrotation Yrotation
									End Site
									{
OFFSET 0 -0.809720 0.809720
									}
								}
							}
						}
					}
				}
				JOINT RightCollar
				{
					OFFSET 0 0 0
					CHANNELS 3 Zrotation Yrotation Xrotation
					JOINT RightShoulder
					{
						OFFSET -2.94414 1.45463 -0.25291
CHANNELS 3 Zrotation Xrotation Yrotation
						JOINT RightElbow
						{
OFFSET 0 -4.714040 0.000000
CHANNELS 3 Zrotation Xrotation Yrotation
							JOINT RightWrist
							{
OFFSET 0 -2.834680 0.000000
CHANNELS 3 Zrotation Xrotation Yrotation
								JOINT rhand
								{
									OFFSET 0 0 0
CHANNELS 3 Zrotation Xrotation Yrotation
									JOINT RFingers
									{
OFFSET 0 -0.868200 0.000000
CHANNELS 3 Zrotation Xrotation Yrotation
										End Site
										{
OFFSET 0 -0.699960 0.000000
										}
									}
								}
								JOINT RThumb
								{
OFFSET 0 0.000000 0.000000
CHANNELS 3 Zrotation Xrotation Yrotation
									End Site
									{
OFFSET 0 -0.710650 0.710650
									}
								}
							}
						}
					}
				}
			}
		}
	}
}
MOTION
Frames: 9
Frame Time: 0.008333333333333333
-8.965737 16.233566 -0.352089 171.979257 27.835530 -169.713250 0.000000 0.000000 0.000000 -9.502839 -21.474247 -48.880877 15.524188 19.504968 76.806005 -0.541954 21.594162 10.652963 0.077489 1.795449 4.940778 0.000000 0.000000 0.000000 27.341662 5.397118 4.940864 -1.330513 -7.291395 20.587351 -0.319553 -5.834727 10.025816 -2.061792 8.992248 -25.772030 -0.845373 4.891753 -0.765045 -3.421356 6.620782 -0.332967 -2.950284 3.348983 0.395619 -1.103374 -5.428323 -34.226264 2.018318 -6.595992 41.755914 -0.278985 -1.313878 24.976837 0.000000 0.000000 0.000000 23.342609 32.399512 -52.567772 101.680260 -59.476521 70.097563 15.125292 20.486705 -6.548712 0.000000 0.000000 0.000000 -7.125000 0.000000 0.000000 -9.799934 36.606784 -2.047144 0.000000 0.000000 0.000000 -14.594017 6.223496 50.036524 -82.948586 -59.808084 -53.897415 -13.634768 12.486797 2.310799 0.000000 0.000000 0.000000 7.125000 0.000000 0.000000 10.418184 32.239517 3.302109
-8.917912 16.273299 -0.453466 171.937771 27.978890 -169.638751 0.000000 0.000000 0.000000 -9.426616 -21.670340 -48.975330 15.189964 19.434004 75.807015 -0.531261 21.505785 10.665788 0.077168 1.791446 4.929735 0.000000 0.000000 0.000000 27.153486 5.199155 5.380292 -1.235738 -7.045986 19.853052 -0.403460 -6.057582 11.389647 -2.020277 8.907845 -25.507689 -0.890218 4.937358 -0.874135 -3.490567 6.687247 -0.395400 -2.988351 3.383749 0.398658 -1.112723 -5.470568 -34.175692 2.072454 -6.673675 41.795443 -0.265955 -1.327434 25.006111 0.000000 0.000000 0.000000 23.502826 32.635835 -52.609316 102.066779 -59.442164 70.430589 15.113577 20.402916 -6.555636 0.000000 0.000000 0.000000 -7.125000 0.000000 0.000000 -9.810802 36.613153 -2.047933 0.000000 0.000000 0.000000 -14.653850 6.249089 50.255172 -83.502159 -59.839052 -54.375846 -13.570903 12.568191 2.167498 0.000000 0.000000 0.000000 7.125000 0.000000 0.000000 10.451051 32.092652 3.350227
-8.869349 16.311742 -0.554958 171.896977 28.132617 -169.563561 0.000000 0.000000 0.000000 -9.363962 -21.824458 -49.039787 14.847816 19.344586 74.772915 -0.512597 21.361840 10.702090 0.076685 1.785808 4.914153 0.000000 0.000000 0.000000 26.965886 5.017710 5.803432 -1.152782 -6.807351 19.149486 -0.514482 -6.337503 12.730670 -1.963603 8.787341 -25.133985 -0.942344 4.981051 -0.983709 -3.557198 6.751731 -0.461151 -3.019692 3.417686 0.397388 -1.121704 -5.507929 -34.117264 2.123180 -6.740715 41.836699 -0.251243 -1.337695 25.033841 0.000000 0.000000 0.000000 23.652099 32.876281 -52.642198 102.466107 -59.403176 70.774258 15.098590 20.327765 -6.574563 0.000000 0.000000 0.000000 -7.125000 0.000000 0.000000 -9.826255 36.631548 -2.046741 0.000000 0.000000 0.000000 -14.716585 6.286247 50.468451 -84.009217 -59.862003 -54.814351 -13.506531 12.662671 2.047051 0.000000 0.000000 0.000000 7.125000 0.000000 0.000000 10.487259 31.969170 3.394013
-8.820588 16.349839 -0.656482 171.856367 28.289123 -169.488185 0.000000 0.000000 0.000000 -9.304947 -21.967321 -49.096202 14.503542 19.250220 73.729400 -0.491795 21.202996 10.744686 0.076159 1.779731 4.897354 0.000000 0.000000 0.000000 26.778440 4.840694 6.222205 -1.072995 -6.570531 18.454161 -0.632775 -6.632724 14.065579 -1.902864 8.657157 -24.730959 -0.996422 5.024231 -1.093413 -3.623137 6.815683 -0.527791 -3.049229 3.451401 0.394963 -1.130585 -5.543981 -34.056730 2.172993 -6.804902 41.878418 -0.236080 -1.347073 25.061157 0.000000 0.000000 0.000000 23.798439 33.117834 -52.672757 102.868870 -59.362947 71.120782 15.082726 20.254931 -6.596708 0.000000 0.000000 0.000000 -7.125000 0.000000 0.000000 -9.842937 36.653168 -2.045017 0.000000 0.000000 0.000000 -14.780100 6.326506 50.680292 -84.503804 -59.882805 -55.242152 -13.442024 12.760659 1.932731 0.000000 0.000000 0.000000 7.125000 0.000000 0.000000 10.524362 31.851958 3.436638
-8.771828 16.387936 -0.758005 171.815758 28.445630 -169.412810 0.000000 0.000000 0.000000 -9.245932 -22.110184 -49.152617 14.159268 19.155855 72.685886 -0.470994 21.044152 10.787282 0.075634 1.773654 4.880555 0.000000 0.000000 0.000000 26.590994 4.663679 6.640978 -0.993208 -6.333711 17.758835 -0.751068 -6.927945 15.400487 -1.842126 8.526974 -24.327934 -1.050499 5.067411 -1.203117 -3.689076 6.879636 -0.594431 -3.078765 3.485115 0.392538 -1.139467 -5.580033 -33.996196 2.222805 -6.869088 41.920138 -0.220918 -1.356452 25.088474 0.000000 0.000000 0.000000 23.944779 33.359387 -52.703317 103.271633 -59.322717 71.467305 15.066862 20.182097 -6.618854 0.000000 0.000000 0.000000 -7.125000 0.000000 0.000000 -9.859619 36.674787 -2.043293 0.000000 0.000000 0.000000 -14.843614 6.366764 50.892133 -84.998391 -59.903606 -55.669952 -13.377516 12.858647 1.818411 0.000000 0.000000 0.000000 7.125000 0.000000 0.000000 10.561466 31.734746 3.479263
-8.722726 16.425274 -0.859486 171.778568 28.607201 -169.334656 0.000000 0.000000 0.000000 -9.190550 -22.233548 -49.197984 13.813381 19.052525 71.630288 -0.447329 20.862337 10.838575 0.074851 1.764447 4.855134 0.000000 0.000000 0.000000 26.408666 4.497326 7.047518 -0.919351 -6.104125 17.088287 -0.879501 -7.242164 16.712819 -1.774089 8.375902 -23.863525 -1.106051 5.110741 -1.313803 -3.753605 6.944069 -0.662236 -3.105898 3.519118 0.389152 -1.146810 -5.614899 -33.935523 2.270266 -6.931126 41.962210 -0.206684 -1.365167 25.115833 0.000000 0.000000 0.000000 24.088330 33.600010 -52.732316 103.681394 -59.279966 71.819673 15.050325 20.113591 -6.646266 0.000000 0.000000 0.000000 -7.125000 0.000000 0.000000 -9.877722 36.701738 -2.040533 0.000000 0.000000 0.000000 -14.906423 6.410891 51.098674 -85.471769 -59.921565 -56.079493 -13.315445 12.954093 1.712126 0.000000 0.000000 0.000000 7.125000 0.000000 0.000000 10.597608 31.625804 3.519666
-8.673030 16.461296 -0.960892 171.747307 28.777556 -169.251684 0.000000 0.000000 0.000000 -9.141468 -22.323093 -49.224190 13.464695 18.933648 70.553731 -0.418698 20.640680 10.904952 0.073624 1.749810 4.814758 0.000000 0.000000 0.000000 26.235215 4.349467 7.432839 -0.855778 -5.887084 16.460712 -1.025519 -7.589330 17.985995 -1.693397 8.188602 -23.292657 -1.164161 5.154331 -1.426195 -3.815687 7.009336 -0.732061 -3.128861 3.553622 0.384097 -1.151484 -5.647708 -33.874609 2.313651 -6.989440 42.004894 -0.194063 -1.372734 25.143266 0.000000 0.000000 0.000000 24.227044 33.839021 -52.758610 104.103293 -59.232842 72.182177 15.032621 20.052589 -6.682815 0.000000 0.000000 0.000000 -7.125000 0.000000 0.000000 -9.898289 36.737936 -2.035976 0.000000 0.000000 0.000000 -14.968009 6.461726 51.296023 -85.908363 -59.934595 -56.457364 -13.257598 13.045128 1.619777 0.000000 0.000000 0.000000 7.125000 0.000000 0.000000 10.632082 31.531204 3.556215
-8.623335 16.497319 -1.062299 171.716047 28.947911 -169.168713 0.000000 0.000000 0.000000 -9.092386 -22.412638 -49.250396 13.116010 18.814770 69.477174 -0.390067 20.419023 10.971330 0.072397 1.735173 4.774383 0.000000 0.000000 0.000000 26.061763 4.201608 7.818160 -0.792205 -5.670043 15.833137 -1.171538 -7.936496 19.259171 -1.612704 8.001303 -22.721789 -1.222270 5.197920 -1.538586 -3.877770 7.074603 -0.801885 -3.151825 3.588125 0.379043 -1.156158 -5.680516 -33.813695 2.357036 -7.047754 42.047577 -0.181442 -1.380301 25.170699 0.000000 0.000000 0.000000 24.365759 34.078031 -52.784904 104.525192 -59.185717 72.544681 15.014916 19.991587 -6.719363 0.000000 0.000000 0.000000 -7.125000 0.000000 0.000000 -9.918857 36.774134 -2.031418 0.000000 0.000000 0.000000 -15.029595 6.512560 51.493373 -86.344957 -59.947625 -56.835236 -13.199752 13.136163 1.527427 0.000000 0.000000 0.000000 7.125000 0.000000 0.000000 10.666556 31.436605 3.592763
-8.573640 16.533342 -1.163705 171.684786 29.118265 -169.085741 0.000000 0.000000 0.000000 -9.043305 -22.502183 -49.276603 12.767325 18.695893 68.400618 -0.361436 20.197366 11.037707 0.071170 1.720536 4.734007 0.000000 0.000000 0.000000 25.888312 4.053749 8.203482 -0.728633 -5.453002 15.205561 -1.317556 -8.283662 20.532347 -1.532011 7.814003 -22.150921 -1.280379 5.241509 -1.650978 -3.939852 7.139870 -0.871710 -3.174788 3.622628 0.373989 -1.160833 -5.713325 -33.752781 2.400421 -7.106068 42.090261 -0.168821 -1.387868 25.198132 0.000000 0.000000 0.000000 24.504473 34.317042 -52.811197 104.947091 -59.138593 72.907185 14.997212 19.930586 -6.755912 0.000000 0.000000 0.000000 -7.125000 0.000000 0.000000 -9.939425 36.810332 -2.026860 0.000000 0.000000 0.000000 -15.091181 6.563395 51.690723 -86.781552 -59.960655 -57.213107 -13.141906 13.227198 1.435077 0.000000 0.000000 0.000000 7.125000 0.000000 0.000000 10.701030 31.342006 3.629312
